<svg xmlns="http://www.w3.org/2000/svg" viewBox="0 0 32 32" width="32" height="32">
  <defs>
    <linearGradient id="cortexGradient" x1="0%" y1="0%" x2="100%" y2="100%">
      <stop offset="0%" style="stop-color:#e97444;stop-opacity:1" />
      <stop offset="50%" style="stop-color:#ff6b35;stop-opacity:1" />
      <stop offset="100%" style="stop-color:#4a90e2;stop-opacity:1" />
    </linearGradient>
    <filter id="glow">
      <feGaussianBlur stdDeviation="0.8" result="coloredBlur"/>
      <feMerge> 
        <feMergeNode in="coloredBlur"/>
        <feMergeNode in="SourceGraphic"/>
      </feMerge>
    </filter>
  </defs>
  
  <!-- Background -->
  <rect width="32" height="32" rx="6" fill="#1a1a1a"/>
  
  <!-- Neural Network Design -->
  <g transform="translate(4, 4)">
    <!-- Central Core -->
    <circle cx="12" cy="12" r="4" fill="#e97444" opacity="0.9"/>
    <circle cx="12" cy="12" r="2.5" fill="#ff6b35" opacity="0.8"/>
    <circle cx="12" cy="12" r="1" fill="#ffffff" opacity="0.9"/>
    
    <!-- Neural Connections -->
    <g stroke="#4a90e2" stroke-width="1" fill="none" opacity="0.7">
      <path d="M8 8 L12 12 L16 8" stroke-linecap="round"/>
      <path d="M8 16 L12 12 L16 16" stroke-linecap="round"/>
      <path d="M4 12 L8 12" stroke-linecap="round"/>
      <path d="M20 12 L16 12" stroke-linecap="round"/>
      <path d="M6 6 L12 12" stroke-linecap="round" opacity="0.5"/>
      <path d="M18 6 L12 12" stroke-linecap="round" opacity="0.5"/>
      <path d="M6 18 L12 12" stroke-linecap="round" opacity="0.5"/>
      <path d="M18 18 L12 12" stroke-linecap="round" opacity="0.5"/>
    </g>
    
    <!-- Network Nodes -->
    <g fill="#4a90e2" opacity="0.9">
      <circle cx="8" cy="8" r="1.5"/>
      <circle cx="16" cy="8" r="1.5"/>
      <circle cx="8" cy="16" r="1.5"/>
      <circle cx="16" cy="16" r="1.5"/>
      <circle cx="4" cy="12" r="1"/>
      <circle cx="20" cy="12" r="1"/>
    </g>
    
    <!-- Outer Nodes -->
    <g fill="#e97444" opacity="0.7">
      <circle cx="6" cy="6" r="0.8"/>
      <circle cx="18" cy="6" r="0.8"/>
      <circle cx="6" cy="18" r="0.8"/>
      <circle cx="18" cy="18" r="0.8"/>
    </g>
  </g>
  
  <!-- Subtle corner accent -->
  <circle cx="26" cy="6" r="1.5" fill="#4a90e2" opacity="0.6"/>
  <circle cx="6" cy="26" r="1.5" fill="#e97444" opacity="0.6"/>
</svg>
