<svg xmlns="http://www.w3.org/2000/svg" width="192" height="192" viewBox="0 0 192 192" fill="none">
  <!-- Background -->
  <rect width="192" height="192" rx="24" fill="#1a1a1a"/>
  
  <!-- Main Cortex Logo - Stylized Brain/Neural Network -->
  <g transform="translate(32, 32)">
    <!-- Central Core -->
    <circle cx="64" cy="64" r="20" fill="#e97444" opacity="0.9"/>
    <circle cx="64" cy="64" r="12" fill="#ff6b35" opacity="0.7"/>
    <circle cx="64" cy="64" r="6" fill="#fff" opacity="0.9"/>
    
    <!-- Neural Network Connections -->
    <g stroke="#4a90e2" stroke-width="2" fill="none" opacity="0.8">
      <!-- Primary connections -->
      <path d="M44 44 L64 64 L84 44" stroke-linecap="round"/>
      <path d="M44 84 L64 64 L84 84" stroke-linecap="round"/>
      <path d="M20 64 L44 64 L64 44" stroke-linecap="round"/>
      <path d="M108 64 L84 64 L64 84" stroke-linecap="round"/>
      
      <!-- Secondary connections -->
      <path d="M35 25 L64 64 L93 25" stroke-linecap="round" opacity="0.6"/>
      <path d="M35 103 L64 64 L93 103" stroke-linecap="round" opacity="0.6"/>
      <path d="M15 35 L44 44 L64 20" stroke-linecap="round" opacity="0.6"/>
      <path d="M113 93 L84 84 L64 108" stroke-linecap="round" opacity="0.6"/>
    </g>
    
    <!-- Network Nodes -->
    <g fill="#4a90e2" opacity="0.9">
      <circle cx="44" cy="44" r="6"/>
      <circle cx="84" cy="44" r="6"/>
      <circle cx="44" cy="84" r="6"/>
      <circle cx="84" cy="84" r="6"/>
      <circle cx="20" cy="64" r="4"/>
      <circle cx="108" cy="64" r="4"/>
      <circle cx="64" cy="20" r="4"/>
      <circle cx="64" cy="108" r="4"/>
    </g>
    
    <!-- Outer nodes -->
    <g fill="#e97444" opacity="0.7">
      <circle cx="35" cy="25" r="3"/>
      <circle cx="93" cy="25" r="3"/>
      <circle cx="35" cy="103" r="3"/>
      <circle cx="93" cy="103" r="3"/>
      <circle cx="15" cy="35" r="3"/>
      <circle cx="113" cy="35" r="3"/>
      <circle cx="15" cy="93" r="3"/>
      <circle cx="113" cy="93" r="3"/>
    </g>
    
    <!-- Pulsing effect overlay -->
    <circle cx="64" cy="64" r="20" fill="none" stroke="#e97444" stroke-width="1" opacity="0.4">
      <animate attributeName="r" values="20;24;20" dur="2s" repeatCount="indefinite"/>
      <animate attributeName="opacity" values="0.4;0.1;0.4" dur="2s" repeatCount="indefinite"/>
    </circle>
  </g>
  
  <!-- Subtle corner accent -->
  <g opacity="0.3">
    <path d="M168 24 Q168 0 192 0 V24 Q168 24 168 24" fill="#4a90e2"/>
    <path d="M24 168 Q0 168 0 192 H24 Q24 168 24 168" fill="#e97444"/>
  </g>
</svg>